<svg width="120" height="80" viewBox="0 0 120 80" fill="none" xmlns="http://www.w3.org/2000/svg">
<path d="M0.365977 4.802C13.9982 -2.67 30.9288 -0.946003 43.888 7.12699C50.124 11.011 55.492 16.117 59.961 21.895C64.523 27.792 69.207 34.972 70.194 42.479C70.883 47.715 68.702 56.431 61.719 55.77C55.574 55.188 49.692 48.46 49.322 42.538C48.908 35.907 54.795 30.965 60.89 29.728C68.163 28.252 76.142 30.739 82.67 33.847C96.958 40.648 107.965 53.846 111.641 69.117C111.992 70.574 109.766 71.371 109.397 69.898C106.626 58.841 100.179 49.025 91.164 41.934C86.569 38.319 81.319 35.458 75.738 33.637C69.346 31.551 61.345 30.103 55.58 34.483C49.218 39.317 51.361 47.181 57.141 51.447C60.516 53.938 64.538 54.678 66.897 50.46C68.812 47.036 68.319 42.676 67.168 39.092C63.482 27.609 54.165 16.574 44.192 9.85699C31.6869 1.43199 14.9329 -1.15901 1.24878 6.08099C0.371282 6.54499 -0.519723 5.287 0.365977 4.802Z" fill="#4A3AFF"/>
<path d="M98.384 56.941C103.586 63.941 108.753 70.969 114.035 77.911C113.217 78.075 112.398 78.239 111.579 78.402C112.858 74.517 114.106 70.636 115.099 66.667C116.013 63.015 116.289 58.949 117.734 55.478C118.191 54.381 119.894 54.807 119.969 55.914C120.232 59.789 118.783 64.027 117.802 67.75C116.776 71.643 115.584 75.505 114.131 79.264C113.758 80.23 112.321 80.203 111.789 79.426C106.872 72.234 101.834 65.122 96.835 57.986C96.144 57 97.672 55.982 98.384 56.941Z" fill="#4A3AFF"/>
</svg>
