<svg width="22" height="19" viewBox="0 0 22 19" fill="none" xmlns="http://www.w3.org/2000/svg">
<path d="M20 18V2H2V9C2 9.28333 1.90417 9.52083 1.7125 9.7125C1.52083 9.90417 1.28333 10 1 10C0.716667 10 0.479167 9.90417 0.2875 9.7125C0.0958333 9.52083 0 9.28333 0 9V2C0 1.45 0.195833 0.979167 0.5875 0.5875C0.979167 0.195833 1.45 0 2 0H20C20.55 0 21.0208 0.195833 21.4125 0.5875C21.8042 0.979167 22 1.45 22 2V16C22 16.55 21.8042 17.0208 21.4125 17.4125C21.0208 17.8042 20.55 18 20 18ZM8 11C6.9 11 5.95833 10.6083 5.175 9.825C4.39167 9.04167 4 8.1 4 7C4 5.9 4.39167 4.95833 5.175 4.175C5.95833 3.39167 6.9 3 8 3C9.1 3 10.0417 3.39167 10.825 4.175C11.6083 4.95833 12 5.9 12 7C12 8.1 11.6083 9.04167 10.825 9.825C10.0417 10.6083 9.1 11 8 11ZM8 9C8.55 9 9.02083 8.80417 9.4125 8.4125C9.80417 8.02083 10 7.55 10 7C10 6.45 9.80417 5.97917 9.4125 5.5875C9.02083 5.19583 8.55 5 8 5C7.45 5 6.97917 5.19583 6.5875 5.5875C6.19583 5.97917 6 6.45 6 7C6 7.55 6.19583 8.02083 6.5875 8.4125C6.97917 8.80417 7.45 9 8 9ZM2 19C1.45 19 0.979167 18.8042 0.5875 18.4125C0.195833 18.0208 0 17.55 0 17V16.2C0 15.6333 0.145833 15.1125 0.4375 14.6375C0.729167 14.1625 1.11667 13.8 1.6 13.55C2.63333 13.0333 3.68333 12.6458 4.75 12.3875C5.81667 12.1292 6.9 12 8 12C9.1 12 10.1833 12.1292 11.25 12.3875C12.3167 12.6458 13.3667 13.0333 14.4 13.55C14.8833 13.8 15.2708 14.1625 15.5625 14.6375C15.8542 15.1125 16 15.6333 16 16.2V17C16 17.55 15.8042 18.0208 15.4125 18.4125C15.0208 18.8042 14.55 19 14 19H2ZM2 17H14V16.2C14 16.0167 13.9542 15.85 13.8625 15.7C13.7708 15.55 13.65 15.4333 13.5 15.35C12.6 14.9 11.6917 14.5625 10.775 14.3375C9.85833 14.1125 8.93333 14 8 14C7.06667 14 6.14167 14.1125 5.225 14.3375C4.30833 14.5625 3.4 14.9 2.5 15.35C2.35 15.4333 2.22917 15.55 2.1375 15.7C2.04583 15.85 2 16.0167 2 16.2V17Z" fill="#1C1C1C"/>
</svg>
