<svg width="150" height="32" viewBox="0 0 150 32" fill="none" xmlns="http://www.w3.org/2000/svg">
<g clip-path="url(#clip0_72_499)">
<path d="M30.8137 1.67459H2.34355C1.97411 1.67459 1.67462 1.97408 1.67462 2.34351V30.8137C1.67462 31.1831 1.97411 31.4826 2.34355 31.4826H30.8137C31.1831 31.4826 31.4826 31.1831 31.4826 30.8137V2.34351C31.4826 1.97408 31.1831 1.67459 30.8137 1.67459Z" fill="#4A3AFF"/>
<path d="M29.139 0.16107H0.668926C0.388446 0.16107 0.161072 0.388444 0.161072 0.668924V29.139C0.161072 29.4195 0.388446 29.6469 0.668926 29.6469H29.139C29.4195 29.6469 29.6469 29.4195 29.6469 29.139V0.668924C29.6469 0.388444 29.4195 0.16107 29.139 0.16107Z" fill="#1C1C1C" stroke="#4A3AFF" stroke-width="0.32214"/>
<path fill-rule="evenodd" clip-rule="evenodd" d="M7.70322 13.486V23.0864H19.0176L13.0054 15.1496C13.6858 15.1496 14.5134 15.1796 15.1688 15.0832L13.5453 12.9355H15.2417C18.1542 12.9355 20.537 10.5527 20.537 7.64017C20.537 4.72772 18.1542 2.3449 15.2417 2.3449H7.70322V13.486Z" fill="white"/>
<path fill-rule="evenodd" clip-rule="evenodd" d="M14.6504 13.4861L15.7682 14.9649C16.8911 14.6848 17.8971 14.1003 18.6923 13.305C19.4699 12.5274 20.046 11.5484 20.333 10.4555C20.0656 10.9311 19.7343 11.3664 19.351 11.7497C18.2796 12.8211 16.8014 13.4861 15.1753 13.4861H14.6504Z" fill="#4A3AFF"/>
<path fill-rule="evenodd" clip-rule="evenodd" d="M19.7071 23.0866L22.1379 26.2954C23.347 27.8915 26.0044 26.8916 25.3526 24.5648L24.9385 23.0866L21.0569 9.51734C20.9028 11.1391 20.1755 12.6003 19.0814 13.6944C17.8437 14.9321 16.1361 15.7004 14.2577 15.7004H14.1118L19.7071 23.0866Z" fill="#4A3AFF"/>
<path d="M38.6144 19.5021V8.88101H43.122C44.2838 8.88101 45.1455 9.14264 45.7071 9.66589C46.2736 10.1843 46.5568 10.9188 46.5568 11.8693C46.5568 12.4166 46.4536 12.8822 46.2472 13.2663C46.0408 13.6455 45.7839 13.9407 45.4767 14.152C45.1695 14.3584 44.8694 14.4736 44.5766 14.4976C44.879 14.5168 45.1623 14.5912 45.4263 14.7208C45.6951 14.8456 45.9111 15.0497 46.0744 15.3329C46.2424 15.6113 46.3264 15.9858 46.3264 16.4562C46.3264 16.7827 46.3264 17.0995 46.3264 17.4067C46.3264 17.7092 46.3264 18.0236 46.3264 18.35C46.3264 18.5948 46.3456 18.8253 46.384 19.0413C46.4224 19.2525 46.48 19.4061 46.5568 19.5021H43.9861C43.9189 19.3917 43.8637 19.2333 43.8205 19.0269C43.7821 18.8205 43.7629 18.5948 43.7629 18.35C43.7629 18.062 43.7629 17.7956 43.7629 17.5507C43.7629 17.3059 43.7629 17.0395 43.7629 16.7514C43.7629 16.353 43.6669 16.041 43.4749 15.8153C43.2877 15.5897 42.9684 15.4769 42.5172 15.4769H40.4506L41.1274 14.6776V19.5021H38.6144ZM41.1274 14.4472L40.4506 13.5327H42.546C42.81 13.5327 43.0452 13.4751 43.2517 13.3599C43.4581 13.2447 43.6189 13.0815 43.7341 12.8702C43.8541 12.6542 43.9141 12.4022 43.9141 12.1142C43.9141 11.7301 43.7893 11.4181 43.5397 11.1781C43.2949 10.938 42.954 10.818 42.5172 10.818H40.3857L41.1274 10.0187V14.4472ZM49.6985 16.413V14.8072H54.487L54.271 15.1817C54.271 15.1433 54.271 15.1049 54.271 15.0665C54.271 15.0233 54.271 14.9849 54.271 14.9513C54.271 14.7352 54.2158 14.5216 54.1053 14.3104C53.9949 14.0944 53.8197 13.9167 53.5797 13.7775C53.3397 13.6335 53.0252 13.5615 52.6364 13.5615C52.2524 13.5615 51.9259 13.6431 51.6571 13.8063C51.3931 13.9648 51.1914 14.2 51.0522 14.512C50.9178 14.8192 50.8506 15.1913 50.8506 15.6281C50.8506 16.0842 50.9154 16.4754 51.045 16.8019C51.1794 17.1235 51.3835 17.3707 51.6571 17.5435C51.9307 17.7116 52.2812 17.7956 52.7084 17.7956C52.9724 17.7956 53.1981 17.774 53.3853 17.7308C53.5773 17.6875 53.7309 17.6323 53.8461 17.5651C53.9661 17.4931 54.0549 17.4163 54.1126 17.3347C54.175 17.2483 54.2134 17.1643 54.2278 17.0827H56.7624C56.7336 17.4139 56.6184 17.7356 56.4168 18.0476C56.2152 18.3548 55.9367 18.6333 55.5815 18.8829C55.2311 19.1277 54.8038 19.3221 54.2998 19.4661C53.8005 19.6102 53.2341 19.6822 52.6004 19.6822C51.7315 19.6822 50.9754 19.5141 50.3321 19.1781C49.6889 18.8373 49.1896 18.3668 48.8344 17.7668C48.4839 17.1667 48.3087 16.4754 48.3087 15.6929C48.3087 14.8961 48.4887 14.2 48.8488 13.6047C49.2088 13.0046 49.7105 12.539 50.3537 12.2078C51.0018 11.8717 51.7507 11.7037 52.6004 11.7037C53.4789 11.7037 54.2374 11.8741 54.8758 12.215C55.5143 12.551 56.0064 13.0263 56.352 13.6407C56.6976 14.2552 56.8704 14.9777 56.8704 15.8081C56.8704 15.9378 56.868 16.0554 56.8632 16.161C56.8584 16.2666 56.8512 16.3506 56.8416 16.413H49.6985ZM62.2472 19.6822C61.7911 19.6822 61.3471 19.6294 60.915 19.5237C60.4878 19.4181 60.0989 19.2597 59.7485 19.0485C59.4029 18.8325 59.1244 18.5636 58.9132 18.242C58.7068 17.9204 58.6036 17.5459 58.6036 17.1187C58.6036 17.1043 58.6036 17.0875 58.6036 17.0683C58.6036 17.0491 58.6036 17.0323 58.6036 17.0179H61.1527C61.1527 17.0323 61.1527 17.0467 61.1527 17.0611C61.1527 17.0755 61.1527 17.0899 61.1527 17.1043C61.1527 17.3443 61.2559 17.5171 61.4623 17.6227C61.6735 17.7284 61.9591 17.7812 62.3192 17.7812C62.4824 17.7812 62.648 17.7644 62.816 17.7308C62.9888 17.6924 63.1329 17.6323 63.2481 17.5507C63.3681 17.4643 63.4281 17.3563 63.4281 17.2267C63.4281 17.0203 63.3033 16.8739 63.0537 16.7875C62.8088 16.701 62.3936 16.6098 61.8079 16.5138C61.4719 16.461 61.1214 16.3818 60.7566 16.2762C60.3966 16.1706 60.0605 16.029 59.7485 15.8514C59.4365 15.6737 59.1844 15.4481 58.9924 15.1745C58.8004 14.9009 58.7044 14.5648 58.7044 14.1664C58.7044 13.6239 58.8676 13.1727 59.194 12.8126C59.5205 12.4478 59.9525 12.1718 60.4902 11.9845C61.0326 11.7973 61.6279 11.7037 62.276 11.7037C62.8904 11.7037 63.4641 11.8069 63.997 12.0133C64.5346 12.2198 64.9691 12.515 65.3003 12.899C65.6363 13.2831 65.8044 13.7391 65.8044 14.2672C65.8044 14.2768 65.8044 14.2912 65.8044 14.3104C65.8044 14.3248 65.8044 14.3392 65.8044 14.3536H63.2841C63.2841 14.3392 63.2841 14.3248 63.2841 14.3104C63.2841 14.296 63.2841 14.284 63.2841 14.2744C63.2841 14.1112 63.2313 13.9792 63.1257 13.8783C63.0249 13.7775 62.8952 13.7031 62.7368 13.6551C62.5832 13.6071 62.4248 13.5831 62.2616 13.5831C62.1224 13.5831 61.9711 13.5999 61.8079 13.6335C61.6447 13.6623 61.5055 13.7151 61.3903 13.7919C61.2751 13.8639 61.2175 13.972 61.2175 14.116C61.2175 14.2408 61.2847 14.3464 61.4191 14.4328C61.5535 14.5192 61.7383 14.5912 61.9735 14.6488C62.2088 14.7016 62.4776 14.752 62.78 14.8C63.0777 14.8432 63.4065 14.9105 63.7665 15.0017C64.1266 15.0929 64.4698 15.2249 64.7962 15.3977C65.1227 15.5657 65.3891 15.7913 65.5955 16.0746C65.8068 16.3578 65.9124 16.7178 65.9124 17.1547C65.9124 17.6155 65.8068 18.0068 65.5955 18.3284C65.3843 18.6501 65.0987 18.9117 64.7386 19.1133C64.3834 19.3101 63.9898 19.4541 63.5577 19.5453C63.1257 19.6366 62.6888 19.6822 62.2472 19.6822ZM70.7211 19.6534C70.1787 19.6534 69.7322 19.567 69.3818 19.3941C69.0361 19.2213 68.7649 18.9885 68.5681 18.6957C68.3761 18.398 68.2393 18.0668 68.1577 17.702C68.0808 17.3323 68.0424 16.9507 68.0424 16.557C68.0424 16.3842 68.0424 16.2042 68.0424 16.017C68.0424 15.825 68.0424 15.6281 68.0424 15.4265V11.8549H70.6059V15.0017C70.6059 15.1649 70.6059 15.3209 70.6059 15.4697C70.6059 15.6137 70.6059 15.7481 70.6059 15.873C70.6059 16.1658 70.6347 16.437 70.6923 16.6866C70.7499 16.9363 70.8627 17.1379 71.0308 17.2915C71.2036 17.4403 71.4508 17.5147 71.7724 17.5147C72.0941 17.5147 72.3629 17.4259 72.5789 17.2483C72.7949 17.0659 72.9582 16.8355 73.0686 16.557C73.1838 16.2738 73.2414 15.9786 73.2414 15.6713L73.8319 16.2474C73.8319 16.7514 73.7598 17.2123 73.6158 17.6299C73.4718 18.0428 73.2654 18.4004 72.9966 18.7029C72.7277 19.0053 72.4013 19.2405 72.0173 19.4085C71.638 19.5718 71.206 19.6534 70.7211 19.6534ZM73.2414 19.5021V11.8549H75.8049V19.5021H73.2414ZM83.0205 19.5021V16.6794C83.0205 16.4058 83.0205 16.1658 83.0205 15.9594C83.0205 15.7481 83.0205 15.5753 83.0205 15.4409C83.0205 15.2441 83.0109 15.0545 82.9917 14.872C82.9725 14.6848 82.9293 14.5144 82.8621 14.3608C82.7949 14.2072 82.6917 14.0848 82.5524 13.9936C82.418 13.9023 82.2332 13.8567 81.998 13.8567C81.7916 13.8567 81.6115 13.9023 81.4579 13.9936C81.3091 14.0848 81.1843 14.212 81.0835 14.3752C80.9827 14.5336 80.9083 14.7232 80.8603 14.9441C80.8123 15.1601 80.7883 15.3929 80.7883 15.6425L80.205 15.0737C80.205 14.3968 80.3202 13.8063 80.5506 13.3023C80.7859 12.7982 81.1195 12.407 81.5515 12.1286C81.9884 11.8453 82.5068 11.7037 83.1069 11.7037C83.7598 11.7037 84.2638 11.8453 84.6191 12.1286C84.9743 12.407 85.2215 12.7766 85.3607 13.2375C85.5 13.6983 85.5696 14.2024 85.5696 14.7496C85.5696 14.9609 85.5696 15.2513 85.5696 15.6209C85.5696 15.9858 85.5696 16.4298 85.5696 16.9531V19.5021H83.0205ZM78.2248 19.5021V11.8549H80.7883V19.5021H78.2248ZM87.7874 19.5021V16.6866C87.7874 16.4082 87.7874 16.1658 87.7874 15.9594C87.7874 15.7481 87.7874 15.5729 87.7874 15.4337C87.7874 15.2177 87.7754 15.0161 87.7514 14.8288C87.7274 14.6368 87.6818 14.4688 87.6146 14.3248C87.5474 14.176 87.4442 14.0608 87.3049 13.9792C87.1705 13.8975 86.9905 13.8567 86.7649 13.8567C86.5585 13.8567 86.3784 13.9023 86.2248 13.9936C86.076 14.0848 85.9536 14.212 85.8576 14.3752C85.7616 14.5336 85.6896 14.7208 85.6416 14.9369C85.5936 15.1529 85.5696 15.3809 85.5696 15.6209L84.9863 15.0521C84.9863 14.38 85.1015 13.7943 85.3319 13.2951C85.5624 12.7958 85.8936 12.407 86.3256 12.1286C86.7577 11.8453 87.2761 11.7037 87.881 11.7037C88.5291 11.7037 89.0307 11.8429 89.386 12.1214C89.746 12.3998 89.998 12.767 90.1421 13.2231C90.2861 13.6791 90.3581 14.1808 90.3581 14.728C90.3581 14.9489 90.3581 15.2369 90.3581 15.5921C90.3581 15.9474 90.3581 16.3866 90.3581 16.9099V19.5021H87.7874ZM95.3445 19.6678C94.7924 19.6678 94.3004 19.5814 93.8683 19.4085C93.4363 19.2309 93.0955 18.9741 92.8458 18.6381C92.5962 18.302 92.4714 17.894 92.4714 17.4139C92.4714 16.8619 92.6274 16.4154 92.9394 16.0746C93.2515 15.7289 93.6571 15.4673 94.1564 15.2897C94.6556 15.1073 95.1837 14.9897 95.7405 14.9369C96.547 14.86 97.0967 14.7928 97.3895 14.7352C97.6871 14.6728 97.836 14.5672 97.836 14.4184C97.836 14.4136 97.836 14.4112 97.836 14.4112C97.836 14.4064 97.836 14.404 97.836 14.404C97.836 14.1736 97.7135 13.9864 97.4687 13.8423C97.2287 13.6983 96.8975 13.6263 96.475 13.6263C96.0286 13.6263 95.6901 13.7079 95.4597 13.8711C95.2341 14.0296 95.1213 14.272 95.1213 14.5984H92.5866C92.5866 13.9696 92.7594 13.4415 93.1051 13.0143C93.4555 12.5822 93.9259 12.2558 94.5164 12.0349C95.1069 11.8141 95.7669 11.7037 96.4966 11.7037C97.1879 11.7037 97.8288 11.8069 98.4192 12.0133C99.0145 12.2198 99.4945 12.5342 99.8594 12.9566C100.229 13.3791 100.414 13.9167 100.414 14.5696C100.414 14.6704 100.414 14.7712 100.414 14.872C100.414 14.9729 100.414 15.0737 100.414 15.1745V17.7092C100.414 17.9108 100.419 18.1076 100.428 18.2996C100.438 18.4868 100.464 18.6597 100.507 18.8181C100.56 18.9909 100.625 19.1373 100.702 19.2573C100.783 19.3773 100.848 19.4589 100.896 19.5021H98.3832C98.3448 19.4637 98.2872 19.3893 98.2104 19.2789C98.1384 19.1685 98.076 19.0413 98.0232 18.8973C97.9608 18.7053 97.9152 18.5204 97.8864 18.3428C97.8576 18.1604 97.8432 17.9444 97.8432 17.6948L98.3904 18.0692C98.256 18.4004 98.0352 18.6861 97.7279 18.9261C97.4255 19.1661 97.0679 19.3509 96.655 19.4805C96.2422 19.6054 95.8053 19.6678 95.3445 19.6678ZM96.079 17.8028C96.3766 17.8028 96.6622 17.7428 96.9359 17.6227C97.2095 17.5027 97.4351 17.3107 97.6127 17.0467C97.7904 16.7827 97.8792 16.4298 97.8792 15.9882V15.4625L98.5272 16.0386C98.2104 16.149 97.8504 16.2426 97.4471 16.3194C97.0439 16.3914 96.6502 16.4466 96.2662 16.485C95.8581 16.5282 95.5533 16.5978 95.3517 16.6938C95.1501 16.7899 95.0493 16.9483 95.0493 17.1691C95.0493 17.3803 95.1357 17.5387 95.3085 17.6443C95.4861 17.75 95.7429 17.8028 96.079 17.8028ZM106.658 19.675C106.346 19.675 106.019 19.6486 105.678 19.5958C105.337 19.5477 105.021 19.4469 104.728 19.2933C104.435 19.1397 104.197 18.9093 104.015 18.602C103.832 18.2948 103.741 17.8868 103.741 17.3779C103.741 17.2675 103.741 17.1595 103.741 17.0539C103.741 16.9435 103.741 16.8331 103.741 16.7226V13.7991H102.006V11.8549H102.272C102.604 11.8549 102.868 11.8405 103.064 11.8117C103.261 11.7829 103.408 11.7109 103.504 11.5957C103.6 11.4805 103.662 11.3029 103.691 11.0628C103.724 10.818 103.741 10.4796 103.741 10.0475V9.34186H106.319V11.8549H108.479V13.7991H106.319V16.2258C106.319 16.3074 106.319 16.3866 106.319 16.4634C106.319 16.5354 106.319 16.6098 106.319 16.6866C106.319 16.9891 106.355 17.2411 106.427 17.4427C106.499 17.6443 106.686 17.7452 106.989 17.7452C107.157 17.7452 107.315 17.7284 107.464 17.6948C107.613 17.6611 107.723 17.6299 107.795 17.6011V19.4877C107.69 19.5309 107.538 19.5718 107.342 19.6102C107.145 19.6534 106.917 19.675 106.658 19.675ZM114.412 19.6822C113.534 19.6822 112.77 19.5093 112.122 19.1637C111.479 18.8181 110.982 18.3428 110.632 17.738C110.281 17.1331 110.106 16.437 110.106 15.6497C110.106 14.8576 110.281 14.1664 110.632 13.5759C110.982 12.9854 111.479 12.527 112.122 12.2006C112.77 11.8693 113.534 11.7037 114.412 11.7037C115.065 11.7037 115.641 11.7973 116.14 11.9845C116.639 12.1718 117.055 12.4214 117.386 12.7334C117.722 13.0407 117.976 13.3791 118.149 13.7487C118.322 14.1136 118.408 14.476 118.408 14.836C118.408 14.8456 118.408 14.8576 118.408 14.872C118.408 14.8816 118.408 14.8913 118.408 14.9009H115.867C115.867 14.872 115.864 14.8456 115.859 14.8216C115.859 14.7976 115.855 14.7712 115.845 14.7424C115.807 14.5792 115.735 14.4208 115.629 14.2672C115.523 14.1088 115.37 13.9792 115.168 13.8783C114.971 13.7727 114.712 13.7199 114.39 13.7199C114.059 13.7199 113.766 13.7943 113.512 13.9431C113.262 14.092 113.065 14.3104 112.921 14.5984C112.782 14.8816 112.713 15.2321 112.713 15.6497C112.713 16.053 112.782 16.4082 112.921 16.7154C113.065 17.0179 113.262 17.2531 113.512 17.4211C113.766 17.5843 114.059 17.6659 114.39 17.6659C114.722 17.6659 114.99 17.6155 115.197 17.5147C115.408 17.4091 115.567 17.2699 115.672 17.0971C115.778 16.9195 115.84 16.7226 115.859 16.5066H118.408C118.408 16.8715 118.322 17.2411 118.149 17.6155C117.981 17.9852 117.729 18.326 117.393 18.6381C117.062 18.9501 116.647 19.2021 116.147 19.3941C115.648 19.5862 115.07 19.6822 114.412 19.6822ZM125.879 19.5021V16.8235C125.879 16.737 125.879 16.6122 125.879 16.449C125.879 16.2858 125.879 16.1226 125.879 15.9594C125.879 15.7913 125.879 15.6593 125.879 15.5633C125.879 15.0305 125.791 14.6128 125.613 14.3104C125.435 14.008 125.087 13.8567 124.569 13.8567C124.233 13.8567 123.954 13.9239 123.734 14.0584C123.518 14.1928 123.357 14.3848 123.251 14.6344C123.146 14.8841 123.093 15.1817 123.093 15.5273L122.488 15.0161C122.488 14.3488 122.622 13.7679 122.891 13.2735C123.16 12.7742 123.534 12.3878 124.014 12.1142C124.495 11.8405 125.051 11.7037 125.685 11.7037C126.626 11.7037 127.32 11.9797 127.766 12.5318C128.217 13.0791 128.443 13.8423 128.443 14.8216C128.443 15.0713 128.443 15.3737 128.443 15.7289C128.443 16.0842 128.443 16.5066 128.443 16.9963V19.5021H125.879ZM120.529 19.5021V8.24734H123.093V19.5021H120.529ZM132.249 19.7254C131.889 19.7254 131.582 19.5982 131.327 19.3437C131.078 19.0893 130.953 18.7821 130.953 18.422C130.953 18.0668 131.078 17.762 131.327 17.5075C131.582 17.2531 131.891 17.1259 132.256 17.1259C132.611 17.1259 132.914 17.2531 133.163 17.5075C133.418 17.762 133.545 18.0668 133.545 18.422C133.545 18.7821 133.418 19.0893 133.163 19.3437C132.914 19.5982 132.609 19.7254 132.249 19.7254ZM135.982 19.5021V11.8549H138.524V19.5021H135.982ZM137.25 10.782C136.866 10.782 136.527 10.6812 136.234 10.4796C135.946 10.278 135.802 9.99233 135.802 9.62269C135.802 9.24825 135.946 8.96262 136.234 8.7658C136.527 8.56417 136.866 8.46336 137.25 8.46336C137.638 8.46336 137.977 8.56417 138.265 8.7658C138.553 8.96262 138.697 9.24825 138.697 9.62269C138.697 9.99713 138.553 10.2852 138.265 10.4868C137.977 10.6836 137.638 10.782 137.25 10.782ZM144.761 19.675C143.917 19.675 143.172 19.5069 142.529 19.1709C141.891 18.8301 141.389 18.3596 141.024 17.7596C140.664 17.1595 140.484 16.4682 140.484 15.6857C140.484 14.8985 140.664 14.2072 141.024 13.6119C141.389 13.0119 141.891 12.5438 142.529 12.2078C143.172 11.8717 143.917 11.7037 144.761 11.7037C145.606 11.7037 146.348 11.8717 146.986 12.2078C147.63 12.5438 148.131 13.0119 148.491 13.6119C148.856 14.2072 149.039 14.8985 149.039 15.6857C149.039 16.4682 148.856 17.1595 148.491 17.7596C148.131 18.3596 147.63 18.8301 146.986 19.1709C146.348 19.5069 145.606 19.675 144.761 19.675ZM144.761 17.6948C145.107 17.6948 145.405 17.6107 145.654 17.4427C145.904 17.2747 146.096 17.0419 146.23 16.7442C146.365 16.4418 146.432 16.089 146.432 15.6857C146.432 15.2777 146.365 14.9249 146.23 14.6272C146.096 14.3296 145.904 14.0992 145.654 13.9359C145.405 13.7727 145.107 13.6911 144.761 13.6911C144.421 13.6911 144.123 13.7727 143.869 13.9359C143.619 14.0992 143.427 14.3296 143.293 14.6272C143.158 14.9249 143.091 15.2777 143.091 15.6857C143.091 16.089 143.158 16.4418 143.293 16.7442C143.427 17.0419 143.619 17.2747 143.869 17.4427C144.123 17.6107 144.421 17.6948 144.761 17.6948Z" fill="#1C1C1C"/>
</g>
<defs>
<clipPath id="clip0_72_499">
<rect width="150" height="32" fill="white"/>
</clipPath>
</defs>
</svg>
