<svg width="52" height="56" viewBox="0 0 52 56" fill="none" xmlns="http://www.w3.org/2000/svg">
<path d="M21.6667 40.8333C21.6696 37.8617 22.5454 34.9564 24.1854 32.4782C25.8254 30.0001 28.1572 28.0583 30.8914 26.8941C33.6255 25.7298 36.6413 25.3944 39.5644 25.9296C42.4875 26.4647 45.189 27.8467 47.3333 29.904V7C47.3333 5.14348 46.5958 3.36301 45.2831 2.05025C43.9703 0.737498 42.1898 0 40.3333 0L12.3333 0C9.24027 0.003705 6.27496 1.23406 4.08784 3.42118C1.90071 5.6083 0.670361 8.57361 0.666656 11.6667V44.3333C0.670361 47.4264 1.90071 50.3917 4.08784 52.5788C6.27496 54.7659 9.24027 55.9963 12.3333 56H36.8333C32.8109 56 28.9532 54.4021 26.1089 51.5578C23.2646 48.7135 21.6667 44.8558 21.6667 40.8333ZM12.3333 16.3333C12.3333 15.7145 12.5792 15.121 13.0167 14.6834C13.4543 14.2458 14.0478 14 14.6667 14H33.3333C33.9522 14 34.5457 14.2458 34.9832 14.6834C35.4208 15.121 35.6667 15.7145 35.6667 16.3333C35.6667 16.9522 35.4208 17.5457 34.9832 17.9832C34.5457 18.4208 33.9522 18.6667 33.3333 18.6667H14.6667C14.0478 18.6667 13.4543 18.4208 13.0167 17.9832C12.5792 17.5457 12.3333 16.9522 12.3333 16.3333ZM51.3163 55.3163C50.8788 55.7538 50.2854 55.9995 49.6667 55.9995C49.0479 55.9995 48.4546 55.7538 48.017 55.3163L42.4007 49.7C40.7374 50.7616 38.8065 51.3281 36.8333 51.3333C34.7566 51.3333 32.7266 50.7175 30.9998 49.5638C29.2731 48.41 27.9273 46.7701 27.1326 44.8515C26.3379 42.9329 26.1299 40.8217 26.5351 38.7849C26.9402 36.7481 27.9403 34.8772 29.4087 33.4087C30.8772 31.9403 32.7481 30.9402 34.7849 30.5351C36.8217 30.1299 38.9329 30.3379 40.8515 31.1326C42.7701 31.9273 44.41 33.2731 45.5638 34.9998C46.7175 36.7266 47.3333 38.7566 47.3333 40.8333C47.3281 42.8065 46.7616 44.7374 45.7 46.4007L51.3163 52.017C51.7538 52.4546 51.9995 53.0479 51.9995 53.6667C51.9995 54.2854 51.7538 54.8788 51.3163 55.3163Z" fill="#4A3AFF"/>
<path d="M40.5265 43.2068C40.7015 43.3818 40.7998 43.6192 40.7998 43.8667C40.7998 44.1142 40.7015 44.3515 40.5265 44.5266C40.3515 44.7016 40.1141 44.7999 39.8667 44.7999C39.6192 44.7999 39.3818 44.7016 39.2068 44.5266L37.0667 42.3864L34.9265 44.5266C34.84 44.6135 34.7372 44.6825 34.624 44.7296C34.5107 44.7767 34.3893 44.801 34.2667 44.801C34.144 44.801 34.0226 44.7767 33.9093 44.7296C33.7961 44.6825 33.6933 44.6135 33.6068 44.5266C33.52 44.44 33.4512 44.3371 33.4043 44.2239C33.3573 44.1106 33.3331 43.9893 33.3331 43.8667C33.3331 43.7441 33.3573 43.6227 33.4043 43.5095C33.4512 43.3963 33.52 43.2934 33.6068 43.2068L35.7469 41.0667L33.6068 38.9266C33.4318 38.7515 33.3335 38.5142 33.3335 38.2667C33.3335 38.0192 33.4318 37.7818 33.6068 37.6068C33.7818 37.4318 34.0192 37.3335 34.2667 37.3335C34.5141 37.3335 34.7515 37.4318 34.9265 37.6068L37.0667 39.747L39.2068 37.6068C39.3818 37.4318 39.6192 37.3335 39.8667 37.3335C40.1141 37.3335 40.3515 37.4318 40.5265 37.6068C40.7015 37.7818 40.7998 38.0192 40.7998 38.2667C40.7998 38.5142 40.7015 38.7515 40.5265 38.9266L38.3864 41.0667L40.5265 43.2068Z" fill="white"/>
</svg>
