<svg width="56" height="56" viewBox="0 0 56 56" fill="none" xmlns="http://www.w3.org/2000/svg">
<path d="M51.2774 21H37.3334C33.474 21 30.3334 17.8593 30.3334 14V0.056C29.1786 0.0244662 28.0235 0.00579833 26.8684 0L16.3334 0C9.90035 0 4.66669 5.23367 4.66669 11.6667V44.3333C4.66669 50.7663 9.90035 56 16.3334 56H39.6667C46.0997 56 51.3334 50.7663 51.3334 44.3333V22.1317C51.3334 21.7513 51.303 21.3757 51.2774 21ZM21 11.6643C21.6215 11.6503 22.2395 11.7605 22.8177 11.9886C23.396 12.2167 23.9229 12.558 24.3674 12.9925C24.812 13.427 25.1652 13.9459 25.4065 14.5188C25.6477 15.0917 25.772 15.707 25.7722 16.3286C25.7723 16.9503 25.6483 17.5656 25.4074 18.1387C25.1664 18.7117 24.8134 19.2308 24.3691 19.6655C23.9248 20.1002 23.3981 20.4418 22.8199 20.6702C22.2418 20.8985 21.6238 21.0091 21.0024 20.9953C19.783 20.9684 18.6227 20.4651 17.7698 19.5934C16.9169 18.7216 16.4392 17.5506 16.4389 16.331C16.4386 15.1114 16.9157 13.9401 17.7682 13.0679C18.6207 12.1957 19.7807 11.6919 21 11.6643ZM14.5974 26.579C14.8517 26.2453 17.1944 23.331 21.0607 23.331C24.927 23.331 27.265 26.2477 27.5217 26.579C27.708 26.8223 27.8445 27.0999 27.9236 27.396C28.0026 27.692 28.0225 28.0008 27.9822 28.3046C27.9419 28.6083 27.8422 28.9012 27.6887 29.1664C27.5352 29.4316 27.331 29.664 27.0877 29.8503C26.8444 30.0366 26.5668 30.1732 26.2707 30.2522C25.9746 30.3312 25.6659 30.3511 25.3621 30.3108C25.0584 30.2705 24.7655 30.1708 24.5003 30.0173C24.2351 29.8638 24.0027 29.6596 23.8164 29.4163C23.8164 29.4163 22.6567 27.9977 21.0607 27.9977C19.4647 27.9977 18.3144 29.4023 18.3027 29.4163C17.9163 29.8778 17.3667 30.1723 16.7685 30.2384C16.1703 30.3046 15.5697 30.1372 15.0919 29.7713C14.614 29.4054 14.2959 28.8692 14.2037 28.2744C14.1116 27.6797 14.2526 27.0723 14.5974 26.579ZM39.6667 49H16.3334C15.7145 49 15.121 48.7542 14.6834 48.3166C14.2459 47.879 14 47.2855 14 46.6667C14 46.0478 14.2459 45.4543 14.6834 45.0167C15.121 44.5792 15.7145 44.3333 16.3334 44.3333H39.6667C40.2855 44.3333 40.879 44.5792 41.3166 45.0167C41.7542 45.4543 42 46.0478 42 46.6667C42 47.2855 41.7542 47.879 41.3166 48.3166C40.879 48.7542 40.2855 49 39.6667 49ZM39.6667 39.6667H16.3334C15.7145 39.6667 15.121 39.4208 14.6834 38.9832C14.2459 38.5457 14 37.9522 14 37.3333C14 36.7145 14.2459 36.121 14.6834 35.6834C15.121 35.2458 15.7145 35 16.3334 35H39.6667C40.2855 35 40.879 35.2458 41.3166 35.6834C41.7542 36.121 42 36.7145 42 37.3333C42 37.9522 41.7542 38.5457 41.3166 38.9832C40.879 39.4208 40.2855 39.6667 39.6667 39.6667ZM37.3334 16.3333C36.7145 16.3333 36.121 16.0875 35.6834 15.6499C35.2459 15.2123 35 14.6188 35 14V2.198C36.2485 2.9043 37.3979 3.77285 38.4184 4.781L46.5477 12.915C47.579 13.944 48.4284 15.1013 49.133 16.331L37.3334 16.3333Z" fill="#4A3AFF"/>
</svg>
