<svg width="60" height="48" viewBox="0 0 60 48" fill="none" xmlns="http://www.w3.org/2000/svg">
<path d="M59.8775 21.7L58.115 10.0333C57.6818 7.25651 56.1957 4.71685 53.9267 2.87576C51.6578 1.03466 48.7565 0.0142811 45.75 0H20V36.3627L24.065 44.0627C24.8719 45.5847 26.2374 46.7857 27.913 47.4473C29.5887 48.109 31.4631 48.1872 33.1953 47.6678C34.9275 47.1484 36.4024 46.0658 37.3516 44.6171C38.3009 43.1684 38.6613 41.4498 38.3675 39.774L37.5275 35H47.5C49.2894 35.0001 51.058 34.6416 52.6862 33.9487C54.3144 33.2559 55.7643 32.2448 56.9377 30.9839C58.1111 29.723 58.9809 28.2416 59.488 26.64C59.9952 25.0383 60.128 23.3537 59.8775 21.7ZM0 11.6667V23.3333C0.00396964 26.4264 1.3222 29.3917 3.66555 31.5788C6.00889 33.7659 9.18601 34.9963 12.5 35H15V0H12.5C9.18601 0.003705 6.00889 1.23406 3.66555 3.42118C1.3222 5.6083 0.00396964 8.57361 0 11.6667Z" fill="#4A3AFF"/>
</svg>
