<svg width="60" height="56" viewBox="0 0 60 56" fill="none" xmlns="http://www.w3.org/2000/svg">
<path d="M25 25.6667V32.6667C25 33.9043 25.5268 35.0913 26.4645 35.9665C27.4021 36.8417 28.6739 37.3333 30 37.3333H36.1725L41.9575 41.706C42.2561 41.8835 42.6002 41.983 42.954 41.994C43.3078 42.005 43.6583 41.9272 43.9688 41.7687C44.2794 41.6102 44.5387 41.3768 44.7197 41.0928C44.9006 40.8088 44.9966 40.4847 44.9975 40.1543L45.0025 25.6667C45.0028 25.0536 44.8737 24.4466 44.6226 23.8801C44.3715 23.3136 44.0032 22.7989 43.5389 22.3653C43.0746 21.9317 42.5233 21.5878 41.9165 21.3531C41.3097 21.1185 40.6593 20.9977 40.0025 20.9977H30.0025C28.6764 20.9977 27.4046 21.4893 26.467 22.3645C25.5293 23.2397 25.0025 24.4267 25.0025 25.6643L25 25.6667ZM32.5 11.6667H20C18.6739 11.6667 17.4021 12.1583 16.4645 13.0335C15.5268 13.9087 15 15.0957 15 16.3333L15.005 31.9877C15.0059 32.3181 15.1019 32.6422 15.2828 32.9261C15.4638 33.2101 15.7231 33.4435 16.0337 33.602C16.3442 33.7606 16.6947 33.8384 17.0485 33.8273C17.4023 33.8163 17.7464 33.7169 18.045 33.5393L20.0025 32.06V25.6667C20.0025 23.1913 21.0561 20.8173 22.9314 19.067C24.8068 17.3167 27.3503 16.3333 30.0025 16.3333H37.5025C37.5025 15.0957 36.9757 13.9087 36.038 13.0335C35.1004 12.1583 33.8286 11.6667 32.5025 11.6667H32.5ZM60 28C60 43.4397 46.5425 56 30 56C25.0513 55.9929 20.1811 54.8455 15.8216 52.6597C11.4622 50.4738 7.74838 47.3172 5.01 43.47L5 46.6667C5 47.2855 4.73661 47.879 4.26777 48.3166C3.79893 48.7542 3.16304 49 2.5 49C1.83696 49 1.20107 48.7542 0.732233 48.3166C0.263392 47.879 0 47.2855 0 46.6667V39.6877C0 37.1047 2.2525 35 5.02 35H12.5C13.163 35 13.7989 35.2458 14.2678 35.6834C14.7366 36.121 15 36.7145 15 37.3333C15 37.9522 14.7366 38.5457 14.2678 38.9832C13.7989 39.4208 13.163 39.6667 12.5 39.6667H8.4075C12.8475 46.8067 21.0375 51.3333 30 51.3333C43.785 51.3333 55 40.866 55 28C55 27.3812 55.2634 26.7877 55.7322 26.3501C56.2011 25.9125 56.837 25.6667 57.5 25.6667C58.163 25.6667 58.7989 25.9125 59.2678 26.3501C59.7366 26.7877 60 27.3812 60 28ZM57.5 7C56.837 7 56.2011 7.24583 55.7322 7.68342C55.2634 8.121 55 8.71449 55 9.33333L54.99 12.495C49.5175 4.76 40.2675 0 30 0C13.4575 0 0 12.5603 0 28C0 28.6188 0.263392 29.2123 0.732233 29.6499C1.20107 30.0875 1.83696 30.3333 2.5 30.3333C3.16304 30.3333 3.79893 30.0875 4.26777 29.6499C4.73661 29.2123 5 28.6188 5 28C5 15.134 16.215 4.66667 30 4.66667C39.1 4.66667 47.25 9.149 51.665 16.3333H47.5C46.837 16.3333 46.2011 16.5792 45.7322 17.0168C45.2634 17.4543 45 18.0478 45 18.6667C45 19.2855 45.2634 19.879 45.7322 20.3166C46.2011 20.7542 46.837 21 47.5 21H54.9775C56.3089 20.9981 57.5853 20.5037 58.5268 19.625C59.4682 18.7463 59.998 17.555 60 16.3123V9.33333C60 8.71449 59.7366 8.121 59.2678 7.68342C58.7989 7.24583 58.163 7 57.5 7Z" fill="#4A3AFF"/>
</svg>
