<svg width="60" height="56" viewBox="0 0 60 56" fill="none" xmlns="http://www.w3.org/2000/svg">
<path d="M35.4525 0.483068C35.092 0.421148 34.7214 0.433967 34.3668 0.520615C34.0122 0.607264 33.6824 0.765623 33.4006 0.984475C33.1189 1.20333 32.8922 1.47732 32.7366 1.78704C32.5809 2.09676 32.5002 2.43464 32.5 2.77674V9.4944C28.3292 8.98104 24.0908 9.70004 20.3803 11.5504C16.6698 13.4008 13.6736 16.2895 11.8125 19.8108C9.95139 23.3322 9.31896 27.3092 10.004 31.1833C10.6891 35.0574 12.6572 38.6338 15.632 41.4102C18.6067 44.1866 22.4386 46.0236 26.5894 46.663C30.7402 47.3024 35.0013 46.7121 38.7742 44.9751C42.547 43.2381 45.6421 40.4416 47.6246 36.9784C49.6072 33.5153 50.3775 29.5595 49.8275 25.6667H57.0425C57.409 25.6666 57.771 25.5912 58.1029 25.4459C58.4347 25.3006 58.7283 25.0891 58.9628 24.8261C59.1973 24.5632 59.3669 24.2553 59.4598 23.9244C59.5526 23.5935 59.5663 23.2475 59.5 22.9111C58.3778 17.3473 55.4817 12.2294 51.1909 8.22754C46.9001 4.22569 41.4145 1.52639 35.4525 0.483068ZM40 30.3334H34.3075C33.9257 30.9523 33.3964 31.4808 32.7606 31.8781C32.1248 32.2753 31.3995 32.5307 30.641 32.6243C29.8825 32.7179 29.111 32.6473 28.3864 32.418C27.6618 32.1886 27.0035 31.8067 26.4625 31.3017C25.9215 30.7968 25.5123 30.1823 25.2665 29.506C25.0208 28.8298 24.9452 28.1097 25.0455 27.4018C25.1458 26.6938 25.4194 26.0169 25.845 25.4235C26.2706 24.8301 26.8369 24.3361 27.5 23.9797V16.3334C27.5 15.7146 27.7634 15.1211 28.2322 14.6835C28.7011 14.2459 29.3369 14.0001 30 14.0001C30.663 14.0001 31.2989 14.2459 31.7678 14.6835C32.2366 15.1211 32.5 15.7146 32.5 16.3334V23.9797C33.2489 24.3864 33.8718 24.9677 34.3075 25.6667H40C40.663 25.6667 41.2989 25.9126 41.7678 26.3502C42.2366 26.7877 42.5 27.3812 42.5 28.0001C42.5 28.6189 42.2366 29.2124 41.7678 29.65C41.2989 30.0876 40.663 30.3334 40 30.3334ZM7.46499 11.5921C7.95027 11.6782 8.39735 11.8965 8.74979 12.2196C9.10222 12.5427 9.34422 12.9559 9.44522 13.4072C9.54623 13.8585 9.50173 14.3276 9.31733 14.7554C9.13293 15.1831 8.8169 15.5502 8.40913 15.8105C8.00135 16.0707 7.52012 16.2123 7.02618 16.2175C6.53223 16.2227 6.0477 16.0912 5.63376 15.8396C5.21982 15.588 4.89502 15.2276 4.70035 14.8039C4.50569 14.3801 4.44989 13.912 4.53999 13.4587C4.60004 13.1566 4.72345 12.8685 4.90312 12.611C5.08279 12.3535 5.31519 12.1317 5.58697 11.9582C5.85875 11.7848 6.16456 11.6631 6.48685 11.6003C6.80913 11.5375 7.14154 11.5347 7.46499 11.5921ZM3.46499 20.8951C3.95028 20.9812 4.39735 21.1995 4.74979 21.5226C5.10222 21.8457 5.34422 22.2589 5.44522 22.7102C5.54623 23.1615 5.50173 23.6306 5.31733 24.0584C5.13293 24.4861 4.8169 24.8532 4.40913 25.1135C4.00136 25.3737 3.52012 25.5153 3.02618 25.5205C2.53223 25.5257 2.0477 25.3942 1.63376 25.1426C1.21982 24.891 0.89502 24.5306 0.700354 24.1069C0.505688 23.6831 0.449885 23.215 0.539988 22.7617C0.600088 22.4603 0.723248 22.1729 0.902429 21.9159C1.08161 21.6589 1.3133 21.4374 1.58425 21.2641C1.8552 21.0907 2.1601 20.9689 2.48152 20.9056C2.80295 20.8423 3.13459 20.8387 3.45749 20.8951H3.46499ZM25.32 50.9204C25.8057 51.0071 26.2529 51.2263 26.6051 51.5502C26.9573 51.8742 27.1987 52.2884 27.2987 52.7403C27.3987 53.1923 27.3528 53.6618 27.1669 54.0895C26.981 54.5172 26.6633 54.8838 26.2542 55.1429C25.845 55.4021 25.3627 55.5422 24.8682 55.5455C24.3737 55.5488 23.8893 55.4151 23.4762 55.1615C23.0631 54.9078 22.7399 54.5455 22.5474 54.1203C22.355 53.6952 22.3019 53.2263 22.395 52.7731C22.5198 52.1669 22.8969 51.6316 23.4437 51.2843C23.9906 50.9371 24.6625 50.8062 25.3125 50.9204H25.32ZM15.02 4.4334C15.5053 4.51951 15.9524 4.73788 16.3048 5.06093C16.6572 5.38399 16.8992 5.79725 17.0002 6.24855C17.1012 6.69986 17.0567 7.16898 16.8723 7.5967C16.6879 8.02442 16.3719 8.39157 15.9641 8.6518C15.5564 8.91202 15.0751 9.05367 14.5812 9.05886C14.0872 9.06405 13.6027 8.93254 13.1888 8.68094C12.7748 8.42934 12.45 8.06893 12.2554 7.64519C12.0607 7.22145 12.0049 6.75338 12.095 6.30007C12.155 5.99793 12.2784 5.70984 12.4581 5.45234C12.6378 5.19484 12.8702 4.973 13.142 4.79955C13.4138 4.62611 13.7196 4.50448 14.0418 4.44164C14.3641 4.37881 14.6965 4.37601 15.02 4.4334ZM25.455 0.487735C25.9395 0.581904 26.3832 0.808172 26.7298 1.13788C27.0764 1.46758 27.3104 1.88588 27.402 2.33979C27.4937 2.79371 27.439 3.26281 27.2448 3.68767C27.0506 4.11253 26.7257 4.47403 26.3111 4.72639C25.8966 4.97874 25.4112 5.1106 24.9163 5.10524C24.4215 5.09988 23.9394 4.95756 23.5313 4.6963C23.1232 4.43504 22.8073 4.0666 22.6237 3.63765C22.4401 3.2087 22.397 2.73854 22.5 2.28673C22.6375 1.6831 23.0257 1.1549 23.5795 0.817737C24.1333 0.480577 24.8077 0.361919 25.455 0.487735ZM0.584988 32.7741C0.677252 32.3211 0.911214 31.9039 1.25734 31.5749C1.60347 31.246 2.04625 31.0201 2.5298 30.9258C3.01334 30.8316 3.51597 30.8731 3.97424 31.0452C4.43251 31.2173 4.82588 31.5123 5.1047 31.8929C5.38351 32.2735 5.53528 32.7226 5.54084 33.1836C5.54639 33.6446 5.40549 34.0969 5.13592 34.4832C4.86635 34.8696 4.48019 35.1727 4.02619 35.3544C3.57218 35.5361 3.07068 35.5882 2.58499 35.5041C2.26127 35.448 1.9526 35.3328 1.67671 35.1651C1.40082 34.9975 1.16313 34.7805 0.977294 34.5269C0.79146 34.2732 0.661141 33.9878 0.593818 33.687C0.526495 33.3862 0.523494 33.076 0.584988 32.7741ZM4.78749 42.0211C4.87975 41.5681 5.11371 41.1509 5.45984 40.8219C5.80597 40.493 6.24875 40.2671 6.7323 40.1729C7.21584 40.0786 7.71847 40.1201 8.17674 40.2922C8.63501 40.4643 9.02838 40.7593 9.30719 41.1399C9.58601 41.5205 9.73778 41.9696 9.74334 42.4306C9.74889 42.8916 9.608 43.3439 9.33842 43.7302C9.06885 44.1166 8.68269 44.4197 8.22869 44.6014C7.77468 44.7831 7.27318 44.8352 6.78749 44.7511C6.46377 44.695 6.1551 44.5798 5.87921 44.4121C5.60331 44.2445 5.36563 44.0275 5.17979 43.7739C4.99396 43.5202 4.86364 43.2348 4.79632 42.934C4.72899 42.6332 4.72599 42.323 4.78749 42.0211ZM12.4175 49.0001C12.5098 48.5471 12.7437 48.1299 13.0898 47.8009C13.436 47.472 13.8788 47.2461 14.3623 47.1518C14.8458 47.0576 15.3485 47.0991 15.8067 47.2712C16.265 47.4433 16.6584 47.7383 16.9372 48.1189C17.216 48.4995 17.3678 48.9486 17.3733 49.4096C17.3789 49.8707 17.238 50.3229 16.9684 50.7092C16.6989 51.0956 16.3127 51.3987 15.8587 51.5804C15.4047 51.7621 14.9032 51.8142 14.4175 51.7301C14.0938 51.674 13.7851 51.5588 13.5092 51.3912C13.2333 51.2235 12.9956 51.0065 12.8098 50.7529C12.624 50.4992 12.4936 50.2138 12.4263 49.913C12.359 49.6122 12.356 49.302 12.4175 49.0001ZM52.535 44.4104C52.0497 44.3243 51.6026 44.1059 51.2502 43.7829C50.8978 43.4598 50.6558 43.0466 50.5548 42.5953C50.4537 42.1439 50.4982 41.6748 50.6826 41.2471C50.8671 40.8194 51.1831 40.4522 51.5909 40.192C51.9986 39.9318 52.4799 39.7901 52.9738 39.7849C53.4678 39.7798 53.9523 39.9113 54.3662 40.1629C54.7802 40.4145 55.105 40.7749 55.2996 41.1986C55.4943 41.6224 55.5501 42.0904 55.46 42.5437C55.3997 42.8457 55.276 43.1335 55.0962 43.3907C54.9164 43.648 54.684 43.8696 54.4123 44.0428C54.1405 44.216 53.8348 44.3374 53.5126 44.4001C53.1905 44.4628 52.8583 44.4655 52.535 44.4081V44.4104ZM44.98 51.5667C44.4947 51.4806 44.0476 51.2623 43.6952 50.9392C43.3428 50.6162 43.1008 50.2029 42.9998 49.7516C42.8987 49.3003 42.9432 48.8312 43.1277 48.4034C43.3121 47.9757 43.6281 47.6086 44.0359 47.3483C44.4436 47.0881 44.9249 46.9465 45.4188 46.9413C45.9128 46.9361 46.3973 47.0676 46.8112 47.3192C47.2252 47.5708 47.55 47.9312 47.7446 48.355C47.9393 48.7787 47.9951 49.2468 47.905 49.7001C47.8449 50.0022 47.7215 50.2903 47.5419 50.5478C47.3622 50.8053 47.1298 51.0271 46.858 51.2006C46.5862 51.374 46.2804 51.4957 45.9581 51.5585C45.6358 51.6213 45.3034 51.6241 44.98 51.5667ZM35.1325 55.4307C34.6469 55.3441 34.1997 55.1251 33.8474 54.8013C33.4952 54.4775 33.2537 54.0635 33.1535 53.6116C33.0534 53.1597 33.099 52.6903 33.2847 52.2626C33.4704 51.8349 33.7877 51.4683 34.1966 51.2089C34.6056 50.9496 35.0877 50.8092 35.5821 50.8056C36.0765 50.802 36.5609 50.9353 36.9742 51.1886C37.3874 51.4419 37.7109 51.8039 37.9037 52.2288C38.0965 52.6537 38.1501 53.1225 38.0575 53.5757C37.931 54.1821 37.5521 54.7169 37.0038 55.0629C36.4554 55.4089 35.7825 55.5378 35.1325 55.4214V55.4307ZM59.28 32.6667C59.28 33.1282 59.1334 33.5794 58.8587 33.9631C58.584 34.3468 58.1935 34.6459 57.7367 34.8225C57.2799 34.9991 56.7772 35.0453 56.2923 34.9552C55.8073 34.8652 55.3619 34.643 55.0122 34.3167C54.6626 33.9903 54.4245 33.5746 54.328 33.1219C54.2316 32.6693 54.2811 32.2002 54.4703 31.7738C54.6595 31.3474 54.9799 30.983 55.3911 30.7266C55.8022 30.4703 56.2855 30.3334 56.78 30.3334C57.443 30.3334 58.0789 30.5792 58.5478 31.0168C59.0166 31.4544 59.28 32.0479 59.28 32.6667Z" fill="#4A3AFF"/>
</svg>
