<svg width="56" height="56" viewBox="0 0 56 56" fill="none" xmlns="http://www.w3.org/2000/svg">
<path d="M21 18.6667V15.1667C21 14.2384 21.3687 13.3482 22.0251 12.6918C22.6815 12.0354 23.5717 11.6667 24.5 11.6667H31.5C32.4283 11.6667 33.3185 12.0354 33.9749 12.6918C34.6312 13.3482 35 14.2384 35 15.1667V18.6667H21ZM28 9.33336C28.6215 9.34741 29.2395 9.23717 29.8177 9.00909C30.396 8.78102 30.9229 8.43972 31.3674 8.00522C31.8119 7.57072 32.1652 7.05179 32.4064 6.47889C32.6477 5.90599 32.772 5.29067 32.7722 4.66905C32.7723 4.04744 32.6483 3.43205 32.4073 2.85903C32.1664 2.28601 31.8134 1.76691 31.3691 1.33219C30.9247 0.897468 30.398 0.5559 29.8199 0.327537C29.2417 0.0991743 28.6238 -0.0113813 28.0023 0.00236136C26.783 0.0293243 25.6227 0.532552 24.7698 1.40432C23.9169 2.27609 23.4391 3.44711 23.4388 4.66672C23.4385 5.88633 23.9157 7.05759 24.7682 7.92979C25.6206 8.80198 26.7807 9.30579 28 9.33336ZM56 32.6667V29.1667C56 28.2384 55.6312 27.3482 54.9749 26.6918C54.3185 26.0354 53.4283 25.6667 52.5 25.6667H45.5C44.5717 25.6667 43.6815 26.0354 43.0251 26.6918C42.3687 27.3482 42 28.2384 42 29.1667V32.6667H56ZM49 23.3334C49.6215 23.3474 50.2395 23.2372 50.8177 23.0091C51.396 22.781 51.9229 22.4397 52.3674 22.0052C52.8119 21.5707 53.1652 21.0518 53.4064 20.4789C53.6477 19.906 53.772 19.2907 53.7722 18.6691C53.7723 18.0474 53.6483 17.4321 53.4073 16.859C53.1664 16.286 52.8134 15.7669 52.3691 15.3322C51.9247 14.8975 51.398 14.5559 50.8199 14.3275C50.2417 14.0992 49.6238 13.9886 49.0023 14.0024C47.783 14.0293 46.6227 14.5326 45.7698 15.4043C44.9169 16.2761 44.4391 17.4471 44.4388 18.6667C44.4385 19.8863 44.9157 21.0576 45.7682 21.9298C46.6207 22.802 47.7807 23.3058 49 23.3334ZM14 28V24.5C14 23.5718 13.6313 22.6815 12.9749 22.0252C12.3185 21.3688 11.4283 21 10.5 21H3.5C2.57174 21 1.6815 21.3688 1.02513 22.0252C0.368749 22.6815 0 23.5718 0 24.5L0 28H14ZM7 18.6667C7.62146 18.6807 8.23946 18.5705 8.81772 18.3424C9.39599 18.1144 9.92286 17.7731 10.3674 17.3386C10.8119 16.9041 11.1652 16.3851 11.4064 15.8122C11.6477 15.2393 11.772 14.624 11.7722 14.0024C11.7723 13.3808 11.6483 12.7654 11.4073 12.1924C11.1664 11.6193 10.8134 11.1002 10.3691 10.6655C9.92474 10.2308 9.39804 9.88923 8.81989 9.66087C8.24174 9.43251 7.6238 9.32195 7.00233 9.33569C5.78302 9.36266 4.62272 9.86588 3.7698 10.7377C2.91689 11.6094 2.43914 12.7804 2.43884 14.0001C2.43853 15.2197 2.91569 16.3909 3.76817 17.2631C4.62065 18.1353 5.7807 18.6391 7 18.6667ZM56 42C56 40.7623 55.5083 39.5754 54.6332 38.7002C53.758 37.825 52.571 37.3334 51.3333 37.3334H45.5C44.2623 37.3334 43.0753 37.825 42.2002 38.7002C41.325 39.5754 40.8333 40.7623 40.8333 42V56H56V42ZM15.1667 37.3334V56H0V37.3334C0 36.0957 0.491665 34.9087 1.36683 34.0335C2.242 33.1584 3.42899 32.6667 4.66667 32.6667H10.5C11.7377 32.6667 12.9247 33.1584 13.7998 34.0335C14.675 34.9087 15.1667 36.0957 15.1667 37.3334ZM36.1667 28V56H19.8333V28C19.8333 26.7624 20.325 25.5754 21.2002 24.7002C22.0753 23.825 23.2623 23.3334 24.5 23.3334H31.5C32.7377 23.3334 33.9247 23.825 34.7998 24.7002C35.675 25.5754 36.1667 26.7624 36.1667 28Z" fill="#4A3AFF"/>
</svg>
